<?xml version="1.0" standalone="no"?><!DOCTYPE svg PUBLIC "-//W3C//DTD SVG 1.1//EN" "http://www.w3.org/Graphics/SVG/1.1/DTD/svg11.dtd"><svg t="1555740132924" class="icon" style="" viewBox="0 0 1024 1024" version="1.1" xmlns="http://www.w3.org/2000/svg" p-id="5296" xmlns:xlink="http://www.w3.org/1999/xlink" width="128" height="128"><defs><style type="text/css"></style></defs><path d="M732.2 485.1c-13.8 0-24.9-11.1-24.9-24.9V310.9c0-108.6-88.4-197-197-197s-197 88.4-197 197v149.2c0 13.8-11.1 24.9-24.9 24.9-13.8 0-24.9-11.1-24.9-24.9V310.9c0-65.7 25.7-127.6 72.5-174.3 46.7-46.7 108.7-72.5 174.3-72.5s127.6 25.7 174.3 72.5c46.7 46.7 72.5 108.7 72.5 174.3v149.2c0 13.8-11.2 25-24.9 25z" fill="#FFF082" p-id="5297"></path><path d="M138.5 204.5h107.1v133H138.5zM776.6 204.5h107.1v133H776.6z" fill="#B5E66E" p-id="5298"></path><path d="M869.7 960.2H154.3c-30.6 0-55.7-25-55.7-55.7V337.3h826.7v567.2c0 30.7-25 55.7-55.6 55.7z" fill="#B5E66E" p-id="5299"></path><path d="M925.3 337.3c-53.2-13.7-94.5-35.7-94.7-68.1-0.1-20.3 19.7-44.6 53-64.8l-375.6 0.2-369.6-0.2c32.7 20.1 53.2 44.5 53.1 64.8-0.2 32.3-40.7 54.3-92.9 68.1h826.7z" fill="#694B4B" p-id="5300"></path><path d="M331.7 553.8m-63.7 0a63.7 63.7 0 1 0 127.4 0 63.7 63.7 0 1 0-127.4 0Z" fill="#9DD355" p-id="5301"></path><path d="M772 553.9m-63.7 0a63.7 63.7 0 1 0 127.4 0 63.7 63.7 0 1 0-127.4 0Z" fill="#9DD355" p-id="5302"></path><path d="M796.9 539.9h-49.8V390.6c0-6.5-1.4-13.7-2.9-21.4-1.9-9.8-4.1-20-3.7-31.9h49.8c4.7 12.7 6.6 42 6.6 53.3v149.3zM353.1 539.9h-49.8V390.6c0-11.6 2-22.5 3.8-32.2 1.4-7.7 2.8-15.1 2.8-21.1h49.8c-3.3 11-6.5 42.7-6.5 53.3v149.3z" fill="#9DD355" p-id="5303"></path><path d="M291.8 553.8m-63.7 0a63.7 63.7 0 1 0 127.4 0 63.7 63.7 0 1 0-127.4 0Z" fill="#FFFFFF" p-id="5304"></path><path d="M732.2 553.9m-63.7 0a63.7 63.7 0 1 0 127.4 0 63.7 63.7 0 1 0-127.4 0Z" fill="#FFFFFF" p-id="5305"></path><path d="M732.2 564.8c-13.8 0-24.9-11.1-24.9-24.9V390.6c0-108.6-88.4-197-197-197s-197 88.4-197 197v149.3c0 13.8-11.1 24.9-24.9 24.9-13.8 0-24.9-11.1-24.9-24.9V390.6c0-65.7 25.7-127.6 72.5-174.3 46.7-46.7 108.7-72.5 174.3-72.5s127.6 25.7 174.3 72.5c46.7 46.7 72.5 108.7 72.5 174.3v149.3c0 13.7-11.2 24.9-24.9 24.9z" fill="#FFF082" p-id="5306"></path></svg>