<?xml version="1.0" standalone="no"?><!DOCTYPE svg PUBLIC "-//W3C//DTD SVG 1.1//EN" "http://www.w3.org/Graphics/SVG/1.1/DTD/svg11.dtd"><svg t="1555740294517" class="icon" style="" viewBox="0 0 1024 1024" version="1.1" xmlns="http://www.w3.org/2000/svg" p-id="23530" xmlns:xlink="http://www.w3.org/1999/xlink" width="128" height="128"><defs><style type="text/css"></style></defs><path d="M518.320988 448.790123m-265.481482 0a265.481481 265.481481 0 1 0 530.962963 0 265.481481 265.481481 0 1 0-530.962963 0Z" fill="#E9EAEB" p-id="23531"></path><path d="M530.962963 663.703704l214.91358-113.777778-214.91358-113.777778-214.91358 113.777778z" fill="#E9EAEB" p-id="23532"></path><path d="M316.049383 663.703704V783.802469l214.91358 120.098766 227.555556-120.098766v-120.098765z" fill="#A3D4FF" p-id="23533"></path><path d="M530.962963 917.807407l-227.555556-126.419753V663.703704h25.283951v112.51358l202.271605 113.777778 214.91358-113.777778v-112.51358h25.283951v127.68395z" fill="#2A5082" p-id="23534"></path><path d="M202.271605 638.419753l214.91358 113.777778 113.777778-75.851852v-12.641975l-214.91358-113.777778-113.777778 75.851852z" fill="#FFFFFF" p-id="23535"></path><path d="M418.449383 767.367901l-228.819753-121.362963V619.45679l125.155555-83.437037L543.604938 657.382716v25.283951l-125.155555 84.701234zM216.177778 632.098765l199.74321 106.192593 99.871605-67.002469-199.74321-106.192593-99.871605 67.002469z" fill="#2A5082" p-id="23536"></path><path d="M859.654321 638.419753l-214.91358 113.777778-113.777778-75.851852v-12.641975l214.91358-113.777778 113.777778 75.851852z" fill="#FFFFFF" p-id="23537"></path><path d="M643.476543 767.367901L518.320988 682.666667v-26.548148l228.819753-121.362963 125.155555 83.437037V644.740741l-228.819753 122.62716zM544.869136 670.024691l99.871605 67.002469L845.748148 632.098765l-99.871605-67.002469L544.869136 670.024691z" fill="#2A5082" p-id="23538"></path><path d="M202.271605 461.432099l214.91358-113.777778v149.175309l-101.135802 53.096296-113.777778-75.851852z" fill="#FFFFFF" p-id="23539"></path><path d="M314.785185 565.096296L189.62963 480.395062v-26.548148l240.19753-127.683951v176.987654l-115.041975 61.945679zM216.177778 467.753086l99.871605 67.00247 87.229629-46.775309v-120.098766L216.177778 467.753086z" fill="#2A5082" p-id="23540"></path><path d="M859.654321 461.432099l-214.91358-113.777778v151.703704l101.135802 50.567901 113.777778-75.851852z" fill="#FFFFFF" p-id="23541"></path><path d="M747.140741 565.096296l-115.041976-56.888889V326.162963l240.197531 127.683951V480.395062l-125.155555 84.701234z m-89.758025-73.323456l87.22963 44.246913 101.135802-67.002469-188.365432-99.871605v122.627161zM518.320988 676.345679h25.28395v227.555556h-25.28395z" fill="#2A5082" p-id="23542"></path><path d="M771.160494 284.444444h37.925926v25.283951h-37.925926zM859.654321 284.444444h37.925926v25.283951h-37.925926zM821.728395 322.37037h25.283951v37.925926h-25.283951zM821.728395 233.876543h25.283951v37.925926h-25.283951zM193.460148 237.454222l25.031111-25.031111 17.875753 17.875753-25.031111 25.031111zM256.670025 174.244346l25.031111-25.031111 17.875753 17.875753-25.031111 25.031111zM256.670025 230.298864l17.875753-17.875753 25.031111 25.031111-17.875753 17.875753zM193.460148 167.088988l17.875753-17.875753 25.031111 25.031111-17.875753 17.875753zM151.703704 309.728395h25.28395v25.283951h-25.28395zM151.703704 360.296296h25.28395v25.283951h-25.28395zM126.419753 335.012346h25.283951v25.28395h-25.283951zM176.987654 335.012346h25.283951v25.28395h-25.283951z" fill="#BCC0C4" p-id="23543"></path><path d="M404.54321 309.728395h25.28395v240.197531h-25.28395zM556.246914 259.160494h25.28395v265.481481h-25.28395zM657.382716 549.925926h-25.283951v-341.333333c0-35.397531 27.812346-63.209877 63.209877-63.209877s63.209877 27.812346 63.209877 63.209877h-25.283951c0-21.491358-16.434568-37.925926-37.925926-37.925926s-37.925926 16.434568-37.925926 37.925926v341.333333z" fill="#2A5082" p-id="23544"></path><path d="M505.679012 587.851852h-25.28395v-417.185185c0-21.491358-16.434568-37.925926-37.925926-37.925926s-37.925926 16.434568-37.925926 37.925926c0 6.320988 1.264198 12.641975 5.05679 18.962963l-21.491358 12.641975c-5.05679-10.11358-8.849383-20.22716-8.849383-31.604938 0-35.397531 27.812346-63.209877 63.209877-63.209877s63.209877 27.812346 63.209876 63.209877v417.185185z" fill="#2A5082" p-id="23545"></path><path d="M404.54321 259.160494h25.28395v25.28395h-25.28395zM556.246914 208.592593h25.28395v25.28395h-25.28395zM556.246914 158.024691h25.28395v25.283951h-25.28395zM556.246914 549.925926h25.28395v25.283951h-25.28395z" fill="#2A5082" p-id="23546"></path></svg>