<?xml version="1.0" standalone="no"?><!DOCTYPE svg PUBLIC "-//W3C//DTD SVG 1.1//EN" "http://www.w3.org/Graphics/SVG/1.1/DTD/svg11.dtd"><svg t="1555740300930" class="icon" style="" viewBox="0 0 1024 1024" version="1.1" xmlns="http://www.w3.org/2000/svg" p-id="23830" xmlns:xlink="http://www.w3.org/1999/xlink" width="128" height="128"><defs><style type="text/css"></style></defs><path d="M184.6 162.7h487c134.5 0 243.5 109 243.5 243.5v365.2c0 38.4-31.1 69.6-69.6 69.6h-487C224 840.9 115 731.9 115 597.4V232.2c0-38.4 31.2-69.5 69.6-69.5z" fill="#0DCEA7" p-id="23831"></path><path d="M857.5 248.9c23.2 35.2 41.5 73.9 54 115.2-7.7-43.5-26.7-82.9-54-115.2zM192.2 162.7h-7.6c-38.4 0-69.6 31.1-69.6 69.6v21c21.6-33.6 47.6-64.1 77.2-90.6zM915 771.3V607.5c-25.3 93.8-80.5 175.2-154.9 233.4h85.3c38.5 0 69.6-31.1 69.6-69.6z" fill="#0DCEA7" p-id="23832"></path><path d="M115.9 617.6C126.1 742.7 230.9 841 358.5 841h13.6c-116.2-30.4-210.9-114.1-256.2-223.4zM915 607.5V406.1c0-14.3-1.3-28.4-3.6-42.1-12.5-41.2-30.8-80-54-115.2-39.9-47.1-97.3-78.8-162.1-85.1 94.3 69.5 155.4 181.4 155.4 307.5 0 177.5-121.1 326.7-285.2 369.6h194.6c74.4-58.1 129.7-139.5 154.9-233.3zM243.9 162.7h-51.7c-29.6 26.5-55.6 57-77.1 90.6v73.9C142 261 187 204.2 243.9 162.7z" fill="#1DD49C" p-id="23833"></path><path d="M850.7 471.3c0-126.1-61.1-238-155.4-307.5-7.8-0.8-15.7-1.2-23.8-1.2h-78.8c105.8 52.6 178.5 161.7 178.5 287.9 0 177.4-143.8 321.3-321.3 321.3S128.7 628 128.7 450.5c0-126.2 72.7-235.3 178.5-287.9h-63.4C187 204.2 142 261 115 327.1v270.3c0 6.8 0.3 13.5 0.8 20.1 45.3 109.3 140 193 256.2 223.4h193.5c164.1-42.8 285.2-192 285.2-369.6z" fill="#2DDB92" p-id="23834"></path><path d="M128.7 450.5c0 177.4 143.8 321.3 321.3 321.3S771.3 628 771.3 450.5c0-126.2-72.7-235.3-178.5-287.9H307.2c-105.8 52.6-178.5 161.8-178.5 287.9z m302.4-281.4c144 0 260.6 116.7 260.6 260.6S575.1 690.4 431.1 690.4 170.5 573.7 170.5 429.7s116.7-260.6 260.6-260.6z" fill="#3DE188" p-id="23835"></path><path d="M431.1 690.4c144 0 260.6-116.7 260.6-260.6S575.1 169.1 431.1 169.1 170.5 285.8 170.5 429.7s116.7 260.7 260.6 260.7z m-18.8-481.5c110.5 0 200 89.5 200 200s-89.5 200-200 200-200-89.5-200-200 89.5-200 200-200z" fill="#4CE77D" p-id="23836"></path><path d="M412.3 608.9c110.5 0 200-89.5 200-200s-89.5-200-200-200-200 89.5-200 200 89.5 200 200 200z m-18.9-360.1c77 0 139.4 62.4 139.4 139.4s-62.4 139.4-139.4 139.4S254 465.2 254 388.2s62.5-139.4 139.4-139.4z" fill="#5CEE73" p-id="23837"></path><path d="M393.4 388.1m-139.4 0a139.4 139.4 0 1 0 278.8 0 139.4 139.4 0 1 0-278.8 0Z" fill="#6CF468" p-id="23838"></path><path d="M671.6 180.7c30.4 0 60 6 87.8 17.7 26.8 11.4 51 27.6 71.7 48.3 20.7 20.7 37 44.8 48.3 71.7 11.8 27.8 17.7 57.3 17.7 87.8v365.2c0 28.4-23.1 51.6-51.6 51.6h-487c-30.4 0-60-6-87.8-17.7-26.8-11.4-51-27.6-71.7-48.3s-37-44.8-48.3-71.7C139 657.4 133 627.9 133 597.4V232.2c0-28.4 23.1-51.6 51.6-51.6h487m0-17.9h-487c-38.4 0-69.6 31.1-69.6 69.6v365.2C115 732 224 841 358.5 841h487c38.4 0 69.6-31.1 69.6-69.6V406.1C915 271.7 806 162.7 671.6 162.7z" fill="#0EC69A" p-id="23839"></path><path d="M603.4 279.9H255.6c-19.2 0-34.8 15.6-34.8 34.8v69.6c0 19.2 15.6 34.8 34.8 34.8h347.8c19.2 0 34.8-15.6 34.8-34.8v-69.6c0-19.2-15.6-34.8-34.8-34.8zM464.3 488.6H255.6c-19.2 0-34.8 15.6-34.8 34.8 0 19.2 15.6 34.8 34.8 34.8h208.7c19.2 0 34.8-15.6 34.8-34.8-0.1-19.2-15.6-34.8-34.8-34.8z m0 121.8H255.6c-19.2 0-34.8 15.6-34.8 34.8s15.6 34.8 34.8 34.8h208.7c19.2 0 34.8-15.6 34.8-34.8-0.1-19.3-15.6-34.8-34.8-34.8z" fill="#9CFFBD" p-id="23840"></path><path d="M175.2 281.3c-9.9 0-18-8.1-18-18v-12.2c0-26.3 21.4-47.7 47.7-47.7H298c9.9 0 18 8.1 18 18s-8.1 18-18 18h-93.1c-6.5 0-11.7 5.3-11.7 11.7v12.2c0 9.9-8.1 18-18 18zM175.2 350.9c-9.9 0-18-8.1-18-18v-10.5c0-9.9 8.1-18 18-18s18 8.1 18 18v10.5c0 9.9-8.1 18-18 18z" fill="#FFFFFF" p-id="23841"></path></svg>