<?xml version="1.0" standalone="no"?><!DOCTYPE svg PUBLIC "-//W3C//DTD SVG 1.1//EN" "http://www.w3.org/Graphics/SVG/1.1/DTD/svg11.dtd"><svg t="1555738292860" class="icon" style="" viewBox="0 0 1024 1024" version="1.1" xmlns="http://www.w3.org/2000/svg" p-id="11368" xmlns:xlink="http://www.w3.org/1999/xlink" width="128" height="128"><defs><style type="text/css"></style></defs><path d="M957.269691 567.719023 789.603017 119.980605 639.761314 119.980605l0 101.968369 94.316086 0.036839 111.476931 345.770048L634.38384 567.755862l-56.734142 102.123912L438.390004 669.879774l-52.093449-101.976556L174.924473 567.903218l111.614054-346.108762 94.297666 0.035816 0-101.849666L230.8676 119.980605 62.964542 567.911404l0 335.951425 894.497531-0.200568L957.269691 567.719023 957.269691 567.719023zM455.360514 353.072361 290.369785 353.072361l219.924875 254.894318 219.924875-254.894318L565.227784 353.072361 565.227784 119.906927 455.360514 119.906927 455.360514 353.072361 455.360514 353.072361zM455.360514 353.072361" p-id="11369" fill="#dbdbdb"></path></svg>