<?xml version="1.0" standalone="no"?><!DOCTYPE svg PUBLIC "-//W3C//DTD SVG 1.1//EN" "http://www.w3.org/Graphics/SVG/1.1/DTD/svg11.dtd"><svg t="1555738289208" class="icon" style="" viewBox="0 0 1024 1024" version="1.1" xmlns="http://www.w3.org/2000/svg" p-id="11192" xmlns:xlink="http://www.w3.org/1999/xlink" width="128" height="128"><defs><style type="text/css"></style></defs><path d="M845.292364 552.409338c-61.853743 0-112.045889-48.976458-112.045889-109.506043 0 60.528562-50.207495 109.506043-112.046912 109.506043-61.841463 0-112.063285-48.976458-112.063285-109.506043 0 60.528562-50.192146 109.506043-112.047935 109.506043-61.854766 0-112.046912-48.976458-112.046912-109.506043 0 60.528562-50.190099 109.506043-112.063285 109.506043-61.839417 0-112.046912-48.976458-112.046912-109.506043l76.786851-200.48308 739.915873 0 79.627549 200.48308C957.355649 503.432881 907.148154 552.409338 845.292364 552.409338L845.292364 552.409338 845.292364 552.409338 845.292364 552.409338zM877.427248 241.34779l3.187599 1.049912-2.90312 0L877.427248 241.34779 877.427248 241.34779zM829.225433 184.132694 188.968327 184.132694c-21.134343 0-38.401612-15.617699-38.401612-34.960233 0-19.280112 17.187451-34.897811 38.401612-34.897811l640.257106 0c21.308305 0 38.57455 15.642259 38.57455 34.897811C867.799984 168.538531 850.533738 184.132694 829.225433 184.132694L829.225433 184.132694 829.225433 184.132694 829.225433 184.132694zM201.814913 620.404965 201.814913 850.687746l614.721523 0L816.536436 620.404965c0 0 8.743128-0.299829 12.687974 0l51.390437 0 0 241.786789c0 20.290115-26.137287 46.174646-49.27424 46.174646L187.088514 908.3664c-23.296589 0-49.276287-25.88453-49.276287-46.174646l0-241.786789 63.987337 0L201.814913 620.404965zM201.814913 620.404965" p-id="11193" fill="#dbdbdb"></path></svg>