<?xml version="1.0" standalone="no"?><!DOCTYPE svg PUBLIC "-//W3C//DTD SVG 1.1//EN" "http://www.w3.org/Graphics/SVG/1.1/DTD/svg11.dtd"><svg t="1555738475703" class="icon" style="" viewBox="0 0 1024 1024" version="1.1" xmlns="http://www.w3.org/2000/svg" p-id="28978" xmlns:xlink="http://www.w3.org/1999/xlink" width="128" height="128"><defs><style type="text/css"></style></defs><path d="M983.60513 819.637777c3.382822 10.148465 5.969685 23.281772 7.561601 39.200933 1.591916 15.919161 2.387874 3.183832 2.387874 19.102993 0 15.919161-1.193937 31.042363-3.382822 45.369607-2.387874 14.327244-5.969685 25.072678-10.546444 32.43529-3.382822 4.775748-13.133307 9.750486-29.052468 15.322192-15.919161 5.571706-182.075398 52.931209-415.689079 52.931209-213.51574 0-397.382044-34.624174-426.633502-41.190828-29.251457-6.566654-46.762534-12.13836-52.931209-16.715119-7.561601-5.571706-13.133307-22.087835-16.715119-49.747377-3.581811-27.858531-2.188885-34.823164 4.576759-78.202876 4.17878-25.072678 14.327244-44.17567 30.445394-56.910999 16.31714-12.934318 35.619122-23.082783 57.507967-30.445394 22.087835-7.561601 124.368442-42.782744 147.849203-48.951419 23.480762-6.168675 43.976681-14.924213 61.487757-26.465604 14.327244-8.755538 25.271667-17.312087 33.032258-25.470657 7.760591-8.15857 13.332297-16.31714 16.31714-24.475709 2.984843-8.15857 4.576759-16.516129 4.576759-25.470657 0-8.755538-0.397979-18.307035-0.994948-28.654489-1.392927-16.31714-6.566654-28.853478-15.720171-37.609017-9.153517-8.755538-19.301982-17.909056-31.042363-27.460552-5.571706-4.775748-10.148465-11.342402-14.327244-19.898951-4.17878-8.556549-7.760591-17.113098-11.143412-25.868636-3.382822-10.148465-6.765643-20.694909-10.148465-31.440342-4.775748-1.392927-9.551496-3.581811-14.327244-7.163622-4.17878-3.382822-8.556549-8.15857-13.332297-14.327244-4.775748-6.168675-8.755538-14.924213-12.337349-26.465604-3.382822-11.342402-4.576759-21.888846-3.382822-31.042363 0.994948-9.153517 2.785853-17.113098 5.571706-23.878741 2.586864-7.561601 6.765643-14.526234 12.337349-21.490867-0.596969-25.669646 0.596969-51.538282 4.17878-77.406918 2.586864-21.689856 7.561601-44.772639 14.725223-69.248348s17.511077-46.563545 31.042363-66.064516c12.934318-18.307035 27.261562-33.430237 43.180723-45.369607 15.919161-11.93937 32.037311-21.291877 48.35445-28.05752 16.31714-6.765643 32.634279-11.342402 49.349398-14.327244 16.516129-2.586864 32.634279-4.17878 48.35445-4.17878 19.500972 0 38.603964 2.387874 56.51302 7.163622 17.909056 4.775748 34.624174 10.745433 50.344345 18.307035 15.521182 7.561601 29.649436 15.720171 41.588807 24.873688 12.337349 9.153517 22.087835 18.506024 29.649436 28.05752 16.914108 21.689856 29.649436 45.568597 38.205985 71.636222 8.556549 26.067625 14.526234 50.543335 17.710066 73.626117 4.17878 27.062573 5.770696 54.324135 5.173727 81.386708 4.775748 2.586864 8.556549 6.765643 11.143412 12.337349 2.586864 4.775748 4.974738 10.745433 6.566654 18.307035 1.591916 7.561601 1.790906 16.516129 0.397979 27.460552-1.989895 14.327244-5.372717 25.470657-9.551496 34.027206-4.576759 8.556549-9.352507 15.123202-14.725223 19.898951-6.168675 5.571706-12.536339 9.153517-19.301982 11.143412-2.586864 10.745433-5.770696 21.490867-9.153517 31.440342-3.382822 8.755538-7.362612 17.511077-11.541391 25.868636-4.576759 8.556549-9.352507 15.123202-14.725223 19.898951-6.168675 5.571706-11.740381 9.949475-17.312087 13.730276-5.571706 3.581811-10.148465 7.561601-14.327244 11.541391-4.17878 4.17878-7.561601 8.954528-10.148465 14.725223-2.586864 5.770696-4.775748 12.735328-6.168675 20.893898-1.989895 10.148465-2.586864 20.495919-1.989895 31.042363 0.596969 10.347454 3.382822 21.092888 8.15857 31.440342 4.775748 10.347454 12.536339 20.495919 23.480762 30.047415 10.745433 9.551496 25.470657 17.909056 43.777691 25.470657 16.914108 6.765643 35.619122 12.735328 55.518072 17.710066 20.09794 5.173727 100.68869 39.797901 119.194714 46.961524 18.506024 7.163622 35.221143 16.11815 49.747377 26.863583C967.089001 787.799456 977.436455 801.927711 983.60513 819.637777L983.60513 819.637777zM531.500972 957.935484c3.382822 0 8.556549-2.188885 15.720171-6.566654 7.163622-4.576759 14.128255-9.551496 20.893898-15.720171 6.765643-6.168675 12.735328-12.337349 17.710066-18.307035 5.173727-6.168675 7.561601-10.745433 7.561601-14.327244 0-4.17878-0.994948-11.143412-2.984843-21.490867-1.989895-10.148465-4.576759-21.490867-7.163622-33.430237-2.586864-12.337349-5.571706-24.27672-8.15857-36.21609-2.586864-11.93937-5.173727-21.490867-7.163622-29.052468 6.765643-5.571706 12.536339-11.342402 17.312087-17.710066 4.775748-6.566654 7.163622-13.133307 7.163622-19.898951 0-5.571706-1.790906-10.944423-5.571706-16.715119-3.581811-5.770696-7.95958-10.546444-12.735328-14.725223-5.571706-4.775748-11.143412-9.551496-17.312087-14.327244L506.030315 699.448115c-6.765643 4.775748-12.536339 9.551496-17.312087 14.327244-4.17878 4.17878-7.760591 8.755538-11.143412 14.327244-3.382822 5.571706-5.173727 10.745433-5.173727 16.31714 0 4.17878 2.387874 9.551496 7.561601 16.31714 5.173727 6.765643 11.342402 13.332297 18.705014 19.301982-1.989895 6.168675-4.775748 14.924213-8.15857 26.465604-3.382822 11.342402-6.566654 23.480762-9.551496 36.21609-2.984843 12.536339-5.770696 24.475709-8.15857 35.619122-2.387874 11.143412-3.382822 19.301982-3.382822 24.873688 0 3.382822 2.387874 8.15857 7.561601 14.327244 5.173727 6.168675 11.143412 12.337349 18.307035 18.307035 7.163622 6.168675 14.128255 11.342402 20.893898 15.720171C523.143412 955.54761 528.31714 957.935484 531.500972 957.935484L531.500972 957.935484z" p-id="28979" fill="#dbdbdb"></path></svg>