<?xml version="1.0" standalone="no"?><!DOCTYPE svg PUBLIC "-//W3C//DTD SVG 1.1//EN" "http://www.w3.org/Graphics/SVG/1.1/DTD/svg11.dtd"><svg t="1555738818362" class="icon" style="" viewBox="0 0 1157 1024" version="1.1" xmlns="http://www.w3.org/2000/svg" p-id="31432" xmlns:xlink="http://www.w3.org/1999/xlink" width="144.625" height="128"><defs><style type="text/css"></style></defs><path d="M740 389.642c-51.881-14.24-90-61.74-90-118.142 0-56.403 38.119-103.902 90-118.142V42.143C740 24.391 754.391 10 772.143 10c17.753 0 32.144 14.391 32.144 32.143v111.021C856.531 167.164 895 214.84 895 271.5c0 56.66-38.469 104.337-90.713 118.336v484.02c0 17.753-14.391 32.144-32.144 32.144C754.391 906 740 891.609 740 873.857V389.642z m62.287-167.26C793.135 216.446 782.22 213 770.5 213c-12.026 0-23.204 3.629-32.5 9.851-15.678 10.494-26 28.366-26 48.649s10.322 38.155 26 48.649c9.296 6.222 20.474 9.851 32.5 9.851 11.72 0 22.635-3.447 31.787-9.381C818.364 310.193 829 292.089 829 271.5s-10.636-38.693-26.713-49.119z m-323 337.662C469.935 553.704 458.65 550 446.5 550c-11.598 0-22.407 3.375-31.5 9.196-16.237 10.396-27 28.593-27 49.304 0 20.71 10.763 38.908 27 49.304 9.093 5.821 19.902 9.196 31.5 9.196 12.15 0 23.435-3.704 32.787-10.044C494.804 646.436 505 628.659 505 608.5c0-20.159-10.196-37.936-25.713-48.456zM415 32.144C415 14.39 429.391 0 447.143 0c17.753 0 32.144 14.391 32.144 32.143v458.294C531.022 504.773 569 552.201 569 608.5s-37.978 103.727-89.713 118.063v147.294c0 17.752-14.391 32.143-32.144 32.143C429.391 906 415 891.609 415 873.857V726.912c-52.39-13.9-91-61.647-91-118.412 0-56.765 38.61-104.511 91-118.412V32.143zM154.287 222.38C145.135 216.447 134.22 213 122.5 213c-12.026 0-23.204 3.629-32.5 9.851-15.678 10.494-26 28.366-26 48.649s10.322 38.155 26 48.649c9.296 6.222 20.474 9.851 32.5 9.851 11.72 0 22.635-3.447 31.787-9.381C170.364 310.193 181 292.089 181 271.5s-10.636-38.693-26.713-49.119zM90 153.358V42.143C90 24.391 104.391 10 122.143 10c17.753 0 32.144 14.391 32.144 32.143v111.021C206.531 167.164 245 214.84 245 271.5c0 56.66-38.469 104.337-90.713 118.336v484.02c0 17.753-14.391 32.144-32.144 32.144C104.391 906 90 891.609 90 873.857V389.642c-51.881-14.24-90-61.74-90-118.142 0-56.403 38.119-103.902 90-118.142z" p-id="31433" fill="#dbdbdb"></path></svg>