<?xml version="1.0" standalone="no"?><!DOCTYPE svg PUBLIC "-//W3C//DTD SVG 1.1//EN" "http://www.w3.org/Graphics/SVG/1.1/DTD/svg11.dtd"><svg t="1555738418905" class="icon" style="" viewBox="0 0 1024 1024" version="1.1" xmlns="http://www.w3.org/2000/svg" p-id="14803" xmlns:xlink="http://www.w3.org/1999/xlink" width="128" height="128"><defs><style type="text/css"></style></defs><path d="M405.923568 101.722776C279.295566 206.825532 205.614449 276.459472 95.310228 397.352867c-27.430746 35.963073-22.976294 102.870926 0 102.870926 71.362304 0 102.870926 0 102.870926 0s0 128.160915 0 257.177314c0 37.830607 5.390777 102.869902 45.196365 102.869902 65.173348 0 160.544463 0 160.544463 0L403.921981 603.088578l205.741851 0 0 257.18243c0 0 83.145675 0 148.308791 0 29.956266 0 57.43306-27.219945 57.43306-102.869902 0-132.344191 0-257.177314 0-257.177314s40.329521 0 102.869902 0c30.588669 0 35.552727-72.79084 0-102.870926C817.308009 294.65795 703.651436 195.340967 593.641927 105.117083 506.79393 37.305651 459.622584 46.296419 405.923568 101.722776z" p-id="14804" fill="#dbdbdb"></path></svg>